<svg width="184" height="211" viewBox="0 0 184 211" fill="none" xmlns="http://www.w3.org/2000/svg">
<rect y="69.0859" width="123" height="169.596" rx="16" transform="rotate(-33.6652 0 69.0859)" fill="#00FA9A"/>
<circle cx="61.0518" cy="49.8072" r="8" transform="rotate(-48.6652 61.0518 49.8072)" fill="white"/>
<path d="M39.9477 91.2601L47.0088 86.5571L52.55 94.8767L50.8138 96.0331L46.3048 89.2632L42.716 91.6535L47.225 98.4234L45.4888 99.5797L39.9477 91.2601ZM51.356 85.5457L49.7014 86.6477L48.7313 85.1912L50.3859 84.0892L51.356 85.5457ZM52.0273 86.5789L56.0163 92.568L54.385 93.6545L50.396 87.6654L52.0273 86.5789ZM62.667 86.1871L63.7274 85.4809L65.7374 88.4988L64.1993 89.5232L63.0896 87.857L58.6501 90.8138L59.7599 92.48L58.2218 93.5045L56.2118 90.4866L57.0974 89.8968C56.8519 88.7706 56.38 87.6832 55.6815 86.6345L54.5329 84.91L59.5783 81.5496L62.667 86.1871ZM61.0358 87.2736L58.855 83.9994L56.9091 85.2954L57.1574 85.6683C57.8973 86.7791 58.3938 87.8446 58.6471 88.8646L61.0358 87.2736ZM65.832 86.0304L61.843 80.0412L66.6902 76.8128L67.5982 78.176L64.3823 80.318L67.4633 84.9439L65.832 86.0304ZM70.3979 74.1246C71.3456 73.4934 72.2906 73.279 73.2327 73.4813C74.1749 73.6836 74.9616 74.2586 75.5928 75.2063C76.224 76.154 76.4514 77.1015 76.2749 78.0489C76.0985 78.9962 75.5364 79.7855 74.5887 80.4167C73.6488 81.0428 72.7039 81.2572 71.7539 81.0601C70.8066 80.85 70.0199 80.275 69.3939 79.335C68.7678 78.3951 68.543 77.4514 68.7195 76.5041C68.8985 75.5438 69.458 74.7506 70.3979 74.1246ZM73.6885 79.0651C74.1779 78.7391 74.4317 78.329 74.4501 77.8345C74.471 77.3272 74.3081 76.8133 73.9615 76.2928C73.62 75.7801 73.2138 75.4395 72.7427 75.2711C72.2742 75.0897 71.7953 75.1619 71.3059 75.4879C70.8243 75.8087 70.573 76.2227 70.5521 76.7301C70.526 77.2297 70.6837 77.7358 71.0252 78.2485C71.3718 78.769 71.7833 79.1173 72.2595 79.2936C72.7305 79.462 73.2069 79.3859 73.6885 79.0651ZM75.2672 73.0682L74.3592 71.7049L79.9172 68.003L80.8253 69.3663L78.8677 70.6701L81.9487 75.296L80.3174 76.3825L77.2364 71.7566L75.2672 73.0682ZM88.9204 74.0168L87.2891 75.1033L86.5957 71.3094L80.4778 67.6297L82.179 66.4966L85.7969 68.6959L86.0999 68.4941L85.3484 64.3857L86.9913 63.2914L88.9204 74.0168ZM94.6129 64.1025L96.1394 63.0858C96.4549 63.7616 96.4869 64.458 96.2355 65.1749C95.9841 65.8918 95.4817 66.5012 94.7282 67.0031C93.8115 67.6136 92.8821 67.8177 91.94 67.6154C91.0004 67.4001 90.2176 66.8225 89.5916 65.8826C88.9707 64.9504 88.742 64.0093 88.9055 63.0594C89.0768 62.1043 89.6168 61.3241 90.5257 60.7187C91.2637 60.2272 91.9925 59.9997 92.7121 60.0363C93.4265 60.0651 94.0373 60.3423 94.5444 60.868L93.018 61.8847C92.591 61.5635 92.0668 61.6099 91.4454 62.0238C91.0415 62.2928 90.7928 62.6098 90.6995 62.9748C90.6061 63.3397 90.6487 63.7151 90.8271 64.1009L92.9128 62.7117L93.7432 63.9585L91.6342 65.3631C91.9343 65.7127 92.2798 65.92 92.6707 65.9849C93.0563 66.042 93.455 65.9334 93.8667 65.6592C94.5503 65.2039 94.7991 64.685 94.6129 64.1025ZM98.7855 64.082L94.7965 58.0929L96.9638 56.6494L99.8519 58.3591L100.155 58.1573L99.6904 54.8334L101.846 53.3976L105.835 59.3868L104.25 60.4423L101.705 56.6204L101.402 56.8222L101.735 59.3928L100.371 60.3008L98.1276 59.0029L97.8247 59.2047L100.37 63.0266L98.7855 64.082ZM106.23 50.2588C107.178 49.6276 108.123 49.4132 109.065 49.6155C110.007 49.8178 110.794 50.3928 111.425 51.3405C112.056 52.2882 112.284 53.2357 112.107 54.1831C111.931 55.1305 111.369 55.9197 110.421 56.5509C109.481 57.177 108.536 57.3914 107.586 57.1943C106.639 56.9842 105.852 56.4092 105.226 55.4692C104.6 54.5293 104.375 53.5857 104.552 52.6383C104.731 51.678 105.29 50.8848 106.23 50.2588ZM109.521 55.1993C110.01 54.8733 110.264 54.4632 110.282 53.9687C110.303 53.4614 110.141 52.9475 109.794 52.427C109.452 51.9143 109.046 51.5738 108.575 51.4053C108.107 51.2239 107.628 51.2962 107.138 51.6221C106.657 51.9429 106.405 52.357 106.385 52.8643C106.358 53.3639 106.516 53.87 106.858 54.3827C107.204 54.9032 107.616 55.2515 108.092 55.4278C108.563 55.5962 109.039 55.5201 109.521 55.1993ZM49.5199 116.131L49.7217 116.434C50.0764 116.31 50.4245 116.302 50.7662 116.411C51.1078 116.52 51.4002 116.757 51.6434 117.122C52.3781 118.225 52.0385 119.247 50.6248 120.189L47.1058 122.533L43.1168 116.544L46.5425 114.262C47.1407 113.864 47.6934 113.692 48.2007 113.746C48.7107 113.788 49.1234 114.046 49.439 114.519C49.8012 115.063 49.8282 115.6 49.5199 116.131ZM47.9183 120.293L49.4681 119.261C50.0351 118.883 50.1712 118.473 49.8763 118.03C49.5762 117.579 49.1426 117.543 48.5756 117.921L47.0258 118.953L47.9183 120.293ZM45.497 116.657L46.2653 117.811L47.6519 116.887C48.118 116.577 48.2242 116.231 47.9707 115.851C47.712 115.462 47.3497 115.423 46.8836 115.734L45.497 116.657ZM57.8428 115.382L57.5014 114.869L57.1984 115.071C57.1127 115.767 56.7009 116.361 55.9629 116.852C55.3104 117.287 54.667 117.441 54.0329 117.314C53.3936 117.179 52.8876 116.832 52.5151 116.272C52.1581 115.736 52.0497 115.136 52.1897 114.47C52.3298 113.805 52.8077 113.201 53.6233 112.658L55.2197 111.595L55.1188 111.443C54.7049 110.822 54.1445 110.746 53.4376 111.217C52.8084 111.636 52.6127 112.075 52.8507 112.533L51.231 113.612C50.8689 113.035 50.8135 112.421 51.0649 111.771C51.3111 111.114 51.8032 110.54 52.5411 110.048C53.3956 109.479 54.1814 109.219 54.8984 109.269C55.6232 109.313 56.2417 109.72 56.7539 110.489L59.346 114.38L57.8428 115.382ZM55.6724 115.179C56.0686 114.915 56.3133 114.584 56.4067 114.185C56.5001 113.786 56.4226 113.401 56.1742 113.028L55.9259 112.655L54.6442 113.509C53.8984 114.005 53.704 114.522 54.061 115.058C54.4284 115.609 54.9655 115.649 55.6724 115.179ZM63.4558 108.733L65.0638 107.662C65.4207 108.366 65.4786 109.085 65.2376 109.817C65.0043 110.544 64.5148 111.156 63.769 111.653C62.8447 112.269 61.9217 112.474 61.0003 112.269C60.0736 112.057 59.2921 111.473 58.6558 110.517C58.0246 109.569 57.7894 108.627 57.9503 107.69C58.1112 106.753 58.6539 105.977 59.5783 105.361C60.324 104.864 61.0644 104.646 61.7996 104.706C62.5373 104.753 63.1519 105.061 63.6435 105.631L62.0239 106.709C61.5814 106.331 61.0727 106.334 60.4979 106.717C60.0163 107.037 59.7715 107.436 59.7635 107.912C59.7555 108.388 59.9275 108.891 60.2793 109.419C60.6311 109.947 61.0335 110.307 61.4864 110.499C61.9419 110.678 62.4066 110.609 62.8805 110.294C63.5252 109.864 63.717 109.344 63.4558 108.733ZM75.9386 101.378L76.9989 100.672L79.009 103.689L77.4709 104.714L76.3611 103.048L71.9217 106.004L73.0314 107.671L71.4934 108.695L69.4833 105.677L70.3689 105.087C70.1235 103.961 69.6515 102.874 68.9531 101.825L67.8045 100.101L72.8498 96.7403L75.9386 101.378ZM74.3073 102.464L72.1265 99.1901L70.1806 100.486L70.429 100.859C71.1688 101.97 71.6654 103.035 71.9186 104.055L74.3073 102.464ZM77.7752 93.2411C78.7229 92.6099 79.6678 92.3955 80.61 92.5978C81.5521 92.8001 82.3388 93.3751 82.97 94.3228C83.6012 95.2705 83.8286 96.2181 83.6522 97.1654C83.4757 98.1128 82.9137 98.9021 81.966 99.5333C81.026 100.159 80.0811 100.374 79.1312 100.177C78.1838 99.9665 77.3971 99.3915 76.7711 98.4516C76.1451 97.5116 75.9203 96.568 76.0967 95.6206C76.2757 94.6603 76.8352 93.8672 77.7752 93.2411ZM81.0657 98.1816C81.5551 97.8557 81.809 97.4455 81.8273 96.9511C81.8482 96.4437 81.6854 95.9298 81.3387 95.4093C80.9972 94.8967 80.591 94.5561 80.1199 94.3876C79.6515 94.2062 79.1725 94.2785 78.6832 94.6044C78.2015 94.9252 77.9503 95.3393 77.9293 95.8466C77.9032 96.3462 78.0609 96.8524 78.4024 97.365C78.749 97.8855 79.1605 98.2339 79.6367 98.4101C80.1078 98.5786 80.5841 98.5024 81.0657 98.1816ZM95.3045 90.4306L93.6732 91.5171L90.5922 86.8912L88.1452 88.521L91.2262 93.1469L89.5949 94.2334L85.6059 88.2442L91.3154 84.4414L95.3045 90.4306ZM95.6971 81.3045C96.6448 80.6732 97.5897 80.4588 98.5318 80.6611C99.474 80.8634 100.261 81.4385 100.892 82.3862C101.523 83.3339 101.75 84.2814 101.574 85.2287C101.398 86.1761 100.836 86.9654 99.8878 87.5966C98.9479 88.2226 98.003 88.437 97.0531 88.2399C96.1057 88.0298 95.319 87.4548 94.693 86.5149C94.067 85.5749 93.8422 84.6313 94.0186 83.6839C94.1976 82.7236 94.7571 81.9305 95.6971 81.3045ZM98.9876 86.2449C99.477 85.919 99.7309 85.5088 99.7492 85.0144C99.7701 84.507 99.6073 83.9931 99.2606 83.4727C98.9191 82.96 98.5129 82.6194 98.0418 82.4509C97.5734 82.2695 97.0944 82.3418 96.6051 82.6677C96.1234 82.9885 95.8722 83.4026 95.8512 83.9099C95.8251 84.4095 95.9828 84.9157 96.3243 85.4284C96.6709 85.9488 97.0824 86.2972 97.5586 86.4734C98.0296 86.6419 98.506 86.5657 98.9876 86.2449ZM107.008 73.9895L108.581 72.9418L112.57 78.931L104.274 84.4567L100.285 78.4675L101.869 77.412L104.958 82.0496L106.741 80.8622L103.652 76.2246L105.225 75.1769L108.314 79.8145L110.097 78.6271L107.008 73.9895ZM118.1 78.6123L116.468 79.6988L115.775 75.9049L109.657 72.2251L111.358 71.0921L114.976 73.2914L115.279 73.0896L114.528 68.9811L116.171 67.8869L118.1 78.6123ZM125.365 70.4089L122.563 68.8274L121.257 69.6966L122.848 72.0853L121.217 73.1718L117.228 67.1826L118.859 66.0961L120.349 68.3333L121.678 67.4486L121.33 64.4508L122.996 63.341L123.452 67.2086L127.078 69.2681L125.365 70.4089ZM132.141 69.26L130.51 70.3465L129.817 66.5526L123.699 62.8728L125.4 61.7398L129.018 63.9391L129.321 63.7373L128.569 59.6288L130.212 58.5346L132.141 69.26ZM75.7175 120.61C75.2359 120.931 74.9846 121.345 74.9637 121.852C74.9453 122.346 75.1069 122.85 75.4484 123.363C75.7898 123.875 76.1948 124.222 76.6633 124.404C77.1395 124.58 77.6184 124.508 78.1 124.187C78.5661 123.876 78.8083 123.474 78.8267 122.98C78.8528 122.48 78.6899 121.966 78.3381 121.438C77.9914 120.917 77.5826 120.573 77.1115 120.405C76.6482 120.231 76.1836 120.299 75.7175 120.61ZM71.8808 121.416L73.4539 120.368L73.8186 120.916L74.1216 120.714C74.184 119.999 74.5881 119.394 75.3338 118.897C76.1106 118.38 76.9248 118.264 77.7763 118.549C78.6227 118.826 79.3537 119.427 79.9694 120.351C80.5902 121.284 80.8655 122.194 80.7952 123.081C80.725 123.969 80.3014 124.672 79.5246 125.189C78.7944 125.676 78.0993 125.802 77.4393 125.569L77.1364 125.771L79.0533 128.649L77.422 129.735L71.8808 121.416ZM82.0175 114.446C82.9652 113.814 83.9101 113.6 84.8523 113.802C85.7944 114.005 86.5811 114.58 87.2123 115.527C87.8435 116.475 88.0709 117.423 87.8945 118.37C87.718 119.317 87.156 120.107 86.2083 120.738C85.2683 121.364 84.3234 121.578 83.3735 121.381C82.4261 121.171 81.6394 120.596 81.0134 119.656C80.3874 118.716 80.1626 117.772 80.339 116.825C80.5181 115.865 81.0775 115.072 82.0175 114.446ZM85.308 119.386C85.7974 119.06 86.0513 118.65 86.0696 118.156C86.0905 117.648 85.9277 117.134 85.581 116.614C85.2396 116.101 84.8333 115.761 84.3622 115.592C83.8938 115.411 83.4149 115.483 82.9255 115.809C82.4439 116.13 82.1926 116.544 82.1717 117.051C82.1455 117.551 82.3032 118.057 82.6447 118.57C82.9914 119.09 83.4028 119.438 83.879 119.615C84.3501 119.783 84.8264 119.707 85.308 119.386ZM89.7784 109.781C90.6328 109.212 91.5066 109.034 92.3995 109.247C93.2951 109.446 94.0326 109.981 94.6121 110.851C95.1916 111.721 95.3801 112.627 95.1778 113.569C94.9781 114.499 94.416 115.271 93.4916 115.887C92.4973 116.549 91.5149 116.749 90.5443 116.487C89.5814 116.22 88.699 115.485 87.8971 114.281C86.1794 111.702 86.0262 109.763 87.4375 108.464L88.8126 107.195C89.0198 107.001 89.1441 106.851 89.1856 106.745C89.2219 106.631 89.2012 106.499 89.1236 106.348L90.4403 105.471C90.7249 105.899 90.8813 106.31 90.9096 106.706C90.9379 107.103 90.7397 107.504 90.315 107.91L88.5553 109.536C88.1773 109.878 87.9597 110.241 87.9025 110.627C87.8454 111.013 87.9371 111.479 88.1776 112.025L88.4806 111.823C88.499 111.026 88.9316 110.345 89.7784 109.781ZM91.1546 114.802C91.6231 114.95 92.0981 114.864 92.5797 114.543C93.0614 114.222 93.3204 113.82 93.3568 113.336C93.3933 112.852 93.2537 112.373 92.9381 111.899C92.6225 111.425 92.2369 111.115 91.7814 110.97C91.3259 110.825 90.8573 110.913 90.3757 111.234C89.8863 111.56 89.6208 111.961 89.5792 112.437C89.5375 112.913 89.6745 113.388 89.9901 113.862C90.3057 114.336 90.6939 114.649 91.1546 114.802ZM96.5484 104.767C97.4961 104.136 98.4411 103.922 99.3832 104.124C100.325 104.326 101.112 104.901 101.743 105.849C102.374 106.797 102.602 107.744 102.425 108.692C102.249 109.639 101.687 110.428 100.739 111.06C99.7993 111.686 98.8544 111.9 97.9044 111.703C96.9571 111.493 96.1704 110.918 95.5444 109.978C94.9183 109.038 94.6935 108.094 94.87 107.147C95.049 106.187 95.6085 105.393 96.5484 104.767ZM99.839 109.708C100.328 109.382 100.582 108.972 100.601 108.477C100.621 107.97 100.459 107.456 100.112 106.936C99.7705 106.423 99.3643 106.082 98.8932 105.914C98.4247 105.733 97.9458 105.805 97.4564 106.131C96.9748 106.452 96.7235 106.866 96.7026 107.373C96.6765 107.873 96.8342 108.379 97.1757 108.891C97.5223 109.412 97.9337 109.76 98.41 109.936C98.881 110.105 99.3574 110.029 99.839 109.708ZM101.418 103.711L100.51 102.348L106.068 98.6459L106.976 100.009L105.018 101.313L108.099 105.939L106.468 107.025L103.387 102.399L101.418 103.711ZM112.855 102.772L111.27 103.827L107.281 97.8379L108.866 96.7825L111.116 100.162L111.396 99.9753L111.464 95.0518L113.072 93.9808L117.061 99.97L115.476 101.025L113.233 97.658L112.954 97.8443L112.855 102.772ZM122.62 90.1615C122.361 89.7731 121.89 89.8065 121.206 90.2618C120.554 90.6964 120.326 91.1623 120.522 91.6594L119.031 92.6527C118.659 91.9588 118.606 91.2819 118.873 90.6219C119.14 89.9619 119.661 89.3733 120.438 88.8559C121.215 88.3385 121.937 88.0929 122.605 88.1191C123.276 88.1323 123.779 88.3914 124.115 88.8963C124.503 89.4789 124.555 89.9941 124.27 90.4418L124.472 90.7447C125.106 90.569 125.641 90.8073 126.075 91.4599C126.442 92.0114 126.497 92.6314 126.237 93.3198C125.973 94.0005 125.437 94.6099 124.629 95.148C123.712 95.7585 122.893 96.052 122.171 96.0283C121.451 95.9918 120.842 95.6744 120.342 95.0762L121.846 94.0751C122.288 94.4532 122.894 94.3862 123.663 93.874C124.432 93.3618 124.674 92.892 124.39 92.4648C124.25 92.2551 124.071 92.1553 123.854 92.1656C123.644 92.1707 123.368 92.287 123.027 92.5147L122.048 93.1666L121.217 91.9198L122.138 91.3067C122.713 90.9239 122.873 90.5421 122.62 90.1615ZM79.2332 149.195L77.602 150.281L74.5209 145.655L72.074 147.285L75.155 151.911L73.5237 152.998L69.5347 147.008L75.2442 143.206L79.2332 149.195ZM80.8018 141.253C80.3202 141.574 80.0689 141.988 80.048 142.496C80.0297 142.99 80.1913 143.494 80.5327 144.006C80.8742 144.519 81.2792 144.866 81.7476 145.047C82.2238 145.224 82.7028 145.151 83.1844 144.831C83.6505 144.52 83.8927 144.118 83.911 143.623C83.9371 143.124 83.7743 142.61 83.4224 142.082C83.0758 141.561 82.6669 141.217 82.1959 141.048C81.7326 140.875 81.2679 140.943 80.8018 141.253ZM76.9652 142.059L78.5382 141.012L78.903 141.559L79.2059 141.358C79.2684 140.643 79.6724 140.038 80.4182 139.541C81.195 139.023 82.0091 138.907 82.8607 139.192C83.707 139.47 84.438 140.071 85.0537 140.995C85.6746 141.927 85.9499 142.837 85.8796 143.725C85.8093 144.613 85.3858 145.316 84.609 145.833C83.8788 146.319 83.1837 146.446 82.5237 146.213L82.2207 146.414L84.1376 149.292L82.5064 150.379L76.9652 142.059ZM87.1018 135.089C88.0495 134.458 88.9945 134.244 89.9366 134.446C90.8788 134.648 91.6655 135.223 92.2967 136.171C92.9279 137.119 93.1553 138.066 92.9788 139.014C92.8024 139.961 92.2403 140.75 91.2926 141.381C90.3527 142.007 89.4078 142.222 88.4578 142.025C87.5105 141.815 86.7238 141.24 86.0978 140.3C85.4717 139.36 85.2469 138.416 85.4234 137.469C85.6024 136.509 86.1619 135.715 87.1018 135.089ZM90.3924 140.03C90.8818 139.704 91.1356 139.294 91.154 138.799C91.1749 138.292 91.012 137.778 90.6654 137.258C90.3239 136.745 89.9177 136.404 89.4466 136.236C88.9781 136.054 88.4992 136.127 88.0098 136.453C87.5282 136.773 87.2769 137.187 87.256 137.695C87.2299 138.194 87.3876 138.701 87.7291 139.213C88.0757 139.734 88.4871 140.082 88.9634 140.258C89.4344 140.427 89.9108 140.351 90.3924 140.03ZM100.165 135.254L101.717 137.584L100.132 138.64L98.58 136.309L98.4751 136.379C97.4886 137.036 96.5359 137.272 95.617 137.088C94.6929 136.896 93.936 136.358 93.3462 135.472C92.7615 134.594 92.5535 133.701 92.7222 132.793C92.8986 131.879 93.4672 131.091 94.4278 130.429L94.591 130.32L92.9379 127.838L94.5226 126.783L96.1756 129.264L96.3388 129.156C97.3046 128.535 98.243 128.319 99.1541 128.509C100.073 128.693 100.825 129.224 101.409 130.102C102.01 131.003 102.206 131.92 101.998 132.855C101.794 133.776 101.182 134.576 100.165 135.254ZM94.9425 134.409C95.2736 134.906 95.676 135.232 96.1497 135.388C96.6259 135.53 97.1139 135.446 97.6136 135.136L97.7418 135.051L95.4291 131.578L95.3126 131.656C94.8258 132.003 94.559 132.427 94.5122 132.929C94.4731 133.426 94.6166 133.919 94.9425 134.409ZM99.3265 133.995L99.4197 133.933C99.9143 133.581 100.184 133.161 100.228 132.672C100.275 132.169 100.133 131.67 99.8014 131.173C99.4703 130.675 99.0666 130.356 98.5904 130.213C98.1167 130.057 97.6223 130.14 97.107 130.461L97.0138 130.523L99.3265 133.995ZM108.167 125.164L108.493 125.653L104.205 128.509C104.965 129.55 105.808 129.763 106.732 129.147C107.322 128.754 107.556 128.296 107.432 127.773L109.086 126.671C109.376 127.375 109.4 128.06 109.159 128.725C108.918 129.39 108.401 129.986 107.609 130.514C106.669 131.14 105.732 131.349 104.797 131.142C103.871 130.929 103.087 130.341 102.445 129.378C101.809 128.423 101.576 127.484 101.748 126.563C101.914 125.633 102.459 124.861 103.383 124.245C104.269 123.655 105.144 123.454 106.008 123.641C106.873 123.827 107.592 124.335 108.167 125.164ZM106.105 125.679C105.54 125.068 104.901 125 104.186 125.476C103.472 125.952 103.257 126.589 103.541 127.387L106.105 125.679ZM114.213 122.987L115.821 121.916C116.178 122.62 116.236 123.338 115.995 124.071C115.762 124.798 115.272 125.41 114.527 125.907C113.602 126.522 112.679 126.728 111.758 126.523C110.831 126.31 110.05 125.726 109.413 124.771C108.782 123.823 108.547 122.881 108.708 121.944C108.869 121.007 109.411 120.23 110.336 119.615C111.082 119.118 111.822 118.899 112.557 118.959C113.295 119.006 113.909 119.315 114.401 119.884L112.781 120.963C112.339 120.585 111.83 120.587 111.255 120.97C110.774 121.291 110.529 121.689 110.521 122.166C110.513 122.642 110.685 123.144 111.037 123.673C111.389 124.201 111.791 124.561 112.244 124.752C112.699 124.931 113.164 124.863 113.638 124.547C114.283 124.118 114.475 123.598 114.213 122.987ZM115.522 114.899L113.867 116.001L112.897 114.545L114.552 113.443L115.522 114.899ZM116.193 115.932L120.182 121.921L118.551 123.008L114.562 117.019L116.193 115.932ZM123.503 119.709L121.919 120.765L117.93 114.776L119.514 113.72L121.765 117.099L122.044 116.913L122.113 111.989L123.721 110.918L127.71 116.908L126.125 117.963L123.882 114.596L123.602 114.782L123.503 119.709ZM120.098 109.9L121.357 109.061C121.677 109.644 121.759 110.212 121.601 110.766C121.445 111.307 121.045 111.792 120.4 112.222C119.755 112.651 119.153 112.833 118.594 112.768C118.03 112.696 117.541 112.399 117.127 111.879L118.385 111.04C118.548 111.235 118.744 111.351 118.972 111.39C119.199 111.429 119.445 111.361 119.709 111.185C120.23 110.838 120.36 110.41 120.098 109.9ZM135.185 111.929L133.554 113.015L131.963 110.627L129.469 112.287L131.06 114.676L129.429 115.763L125.44 109.773L127.071 108.687L128.561 110.924L131.055 109.263L129.564 107.026L131.196 105.94L135.185 111.929ZM138.489 109.728L136.905 110.783L132.916 104.794L134.5 103.739L136.751 107.118L137.031 106.932L137.099 102.008L138.707 100.937L142.696 106.926L141.111 107.982L138.868 104.614L138.589 104.801L138.489 109.728ZM144.415 105.781L140.426 99.7921L142.593 98.3486L145.481 100.058L145.784 99.8566L145.32 96.5326L147.475 95.0969L151.464 101.086L149.88 102.142L147.334 98.3196L147.031 98.5214L147.364 101.092L146.001 102L143.757 100.702L143.454 100.904L145.999 104.726L144.415 105.781ZM82.8821 163.898C82.4005 164.219 82.1493 164.633 82.1283 165.14C82.11 165.635 82.2716 166.138 82.613 166.651C82.9545 167.163 83.3595 167.51 83.8279 167.692C84.3042 167.868 84.7831 167.796 85.2647 167.475C85.7308 167.165 85.973 166.762 85.9913 166.268C86.0174 165.768 85.8546 165.254 85.5027 164.726C85.1561 164.206 84.7472 163.861 84.2762 163.693C83.8129 163.519 83.3482 163.587 82.8821 163.898ZM79.0455 164.704L80.6185 163.656L80.9833 164.204L81.2862 164.002C81.3487 163.288 81.7528 162.682 82.4985 162.185C83.2753 161.668 84.0895 161.552 84.941 161.837C85.7873 162.114 86.5184 162.715 87.134 163.64C87.7549 164.572 88.0302 165.482 87.9599 166.37C87.8896 167.257 87.4661 167.96 86.6893 168.477C85.9591 168.964 85.264 169.09 84.604 168.857L84.301 169.059L86.2179 171.937L84.5867 173.023L79.0455 164.704ZM93.8839 158.707L94.2099 159.196L89.9219 162.052C90.6825 163.093 91.525 163.305 92.4494 162.69C93.0398 162.297 93.2729 161.838 93.1489 161.316L94.8035 160.214C95.0931 160.918 95.1174 161.602 94.8764 162.268C94.6354 162.933 94.1187 163.529 93.3263 164.057C92.3864 164.683 91.4492 164.892 90.5148 164.685C89.5882 164.472 88.8041 163.884 88.1626 162.921C87.5262 161.965 87.2936 161.027 87.4649 160.105C87.6309 159.176 88.1762 158.404 89.1006 157.788C89.9861 157.198 90.8612 156.997 91.7257 157.184C92.5902 157.37 93.3096 157.878 93.8839 158.707ZM91.8219 159.222C91.2578 158.611 90.6185 158.543 89.9038 159.019C89.1891 159.495 88.974 160.132 89.2584 160.929L91.8219 159.222ZM101.611 158.32L98.8084 156.739L97.5034 157.608L99.0943 159.997L97.4631 161.083L93.474 155.094L95.1053 154.007L96.5954 156.245L97.9237 155.36L97.5756 152.362L99.2418 151.252L99.6983 155.12L103.324 157.179L101.611 158.32ZM104.434 149.544C103.952 149.864 103.701 150.278 103.68 150.786C103.662 151.28 103.823 151.784 104.165 152.296C104.506 152.809 104.911 153.156 105.38 153.338C105.856 153.514 106.335 153.442 106.816 153.121C107.283 152.81 107.525 152.408 107.543 151.913C107.569 151.414 107.406 150.9 107.055 150.372C106.708 149.851 106.299 149.507 105.828 149.338C105.365 149.165 104.9 149.233 104.434 149.544ZM100.597 150.35L102.17 149.302L102.535 149.849L102.838 149.648C102.9 148.933 103.305 148.328 104.05 147.831C104.827 147.314 105.641 147.198 106.493 147.483C107.339 147.76 108.07 148.361 108.686 149.285C109.307 150.217 109.582 151.127 109.512 152.015C109.441 152.903 109.018 153.606 108.241 154.123C107.511 154.609 106.816 154.736 106.156 154.503L105.853 154.705L107.77 157.583L106.138 158.669L100.597 150.35ZM115.727 152.283L114.095 153.369L113.402 149.576L107.284 145.896L108.985 144.763L112.603 146.962L112.906 146.76L112.155 142.652L113.798 141.558L115.727 152.283ZM115.25 142.558L114.342 141.195L119.9 137.493L120.809 138.856L118.851 140.16L121.932 144.786L120.301 145.872L117.22 141.246L115.25 142.558ZM128.476 135.667L128.802 136.156L124.514 139.012C125.275 140.053 126.117 140.266 127.041 139.65C127.632 139.257 127.865 138.799 127.741 138.276L129.396 137.174C129.685 137.878 129.71 138.563 129.468 139.228C129.227 139.893 128.711 140.49 127.918 141.017C126.978 141.643 126.041 141.853 125.107 141.645C124.18 141.432 123.396 140.844 122.755 139.881C122.118 138.926 121.886 137.987 122.057 137.066C122.223 136.137 122.768 135.364 123.693 134.748C124.578 134.159 125.453 133.957 126.318 134.144C127.182 134.331 127.902 134.838 128.476 135.667ZM126.414 136.182C125.85 135.571 125.211 135.504 124.496 135.98C123.781 136.456 123.566 137.092 123.851 137.89L126.414 136.182ZM131.903 131.248C131.421 131.569 131.17 131.983 131.149 132.49C131.131 132.985 131.292 133.488 131.634 134.001C131.975 134.514 132.38 134.861 132.849 135.042C133.325 135.218 133.804 135.146 134.285 134.825C134.751 134.515 134.994 134.113 135.012 133.618C135.038 133.119 134.875 132.605 134.523 132.076C134.177 131.556 133.768 131.211 133.297 131.043C132.834 130.869 132.369 130.938 131.903 131.248ZM128.066 132.054L129.639 131.006L130.004 131.554L130.307 131.352C130.369 130.638 130.773 130.032 131.519 129.536C132.296 129.018 133.11 128.902 133.962 129.187C134.808 129.465 135.539 130.066 136.155 130.99C136.776 131.922 137.051 132.832 136.981 133.72C136.91 134.608 136.487 135.31 135.71 135.828C134.98 136.314 134.285 136.441 133.625 136.207L133.322 136.409L135.239 139.287L133.607 140.374L128.066 132.054ZM138.203 125.084C139.15 124.453 140.095 124.238 141.038 124.441C141.98 124.643 142.766 125.218 143.398 126.166C144.029 127.114 144.256 128.061 144.08 129.008C143.903 129.956 143.341 130.745 142.394 131.376C141.454 132.002 140.509 132.217 139.559 132.02C138.611 131.809 137.825 131.234 137.199 130.295C136.573 129.355 136.348 128.411 136.524 127.464C136.703 126.503 137.263 125.71 138.203 125.084ZM141.493 130.025C141.983 129.699 142.237 129.288 142.255 128.794C142.276 128.287 142.113 127.773 141.766 127.252C141.425 126.74 141.019 126.399 140.548 126.231C140.079 126.049 139.6 126.121 139.111 126.447C138.629 126.768 138.378 127.182 138.357 127.69C138.331 128.189 138.489 128.695 138.83 129.208C139.177 129.728 139.588 130.077 140.064 130.253C140.535 130.422 141.012 130.345 141.493 130.025ZM146.78 128.236L142.791 122.247L144.958 120.804L147.846 122.513L148.149 122.312L147.684 118.988L149.84 117.552L153.829 123.541L152.244 124.597L149.699 120.775L149.396 120.976L149.729 123.547L148.365 124.455L146.122 123.157L145.819 123.359L148.364 127.181L146.78 128.236ZM161.21 113.831L161.412 114.134C161.766 114.01 162.114 114.002 162.456 114.111C162.798 114.22 163.09 114.457 163.333 114.822C164.068 115.925 163.728 116.948 162.315 117.889L158.796 120.233L154.807 114.244L158.232 111.962C158.831 111.564 159.383 111.392 159.891 111.447C160.401 111.488 160.813 111.746 161.129 112.22C161.491 112.764 161.518 113.301 161.21 113.831ZM159.608 117.993L161.158 116.961C161.725 116.583 161.861 116.173 161.566 115.73C161.266 115.28 160.833 115.243 160.266 115.621L158.716 116.653L159.608 117.993ZM157.187 114.358L157.955 115.511L159.342 114.588C159.808 114.277 159.914 113.932 159.661 113.551C159.402 113.163 159.04 113.124 158.574 113.434L157.187 114.358ZM108.393 177.833L106.762 178.92L103.681 174.294L101.234 175.923L104.315 180.549L102.684 181.636L98.6949 175.647L104.404 171.844L108.393 177.833ZM108.786 168.707C109.734 168.076 110.679 167.861 111.621 168.064C112.563 168.266 113.35 168.841 113.981 169.789C114.612 170.736 114.84 171.684 114.663 172.631C114.487 173.578 113.925 174.368 112.977 174.999C112.037 175.625 111.092 175.839 110.142 175.642C109.195 175.432 108.408 174.857 107.782 173.917C107.156 172.977 106.931 172.034 107.108 171.086C107.287 170.126 107.846 169.333 108.786 168.707ZM112.077 173.647C112.566 173.321 112.82 172.911 112.838 172.417C112.859 171.909 112.696 171.396 112.35 170.875C112.008 170.362 111.602 170.022 111.131 169.853C110.662 169.672 110.183 169.744 109.694 170.07C109.212 170.391 108.961 170.805 108.94 171.312C108.914 171.812 109.072 172.318 109.413 172.831C109.76 173.351 110.171 173.7 110.648 173.876C111.119 174.044 111.595 173.968 112.077 173.647ZM122.277 166.635L123.337 165.929L125.347 168.946L123.809 169.971L122.7 168.305L118.26 171.261L119.37 172.928L117.832 173.952L115.822 170.934L116.707 170.344C116.462 169.218 115.99 168.131 115.291 167.082L114.143 165.358L119.188 161.997L122.277 166.635ZM120.646 167.721L118.465 164.447L116.519 165.743L116.767 166.116C117.507 167.227 118.004 168.292 118.257 169.312L120.646 167.721ZM129.124 164.026L128.783 163.513L128.48 163.715C128.394 164.411 127.982 165.005 127.244 165.496C126.592 165.931 125.948 166.085 125.314 165.958C124.675 165.823 124.169 165.476 123.796 164.916C123.439 164.38 123.331 163.78 123.471 163.115C123.611 162.449 124.089 161.845 124.904 161.302L126.501 160.239L126.4 160.087C125.986 159.466 125.426 159.39 124.719 159.861C124.089 160.28 123.894 160.719 124.132 161.177L122.512 162.256C122.15 161.679 122.095 161.065 122.346 160.416C122.592 159.758 123.084 159.184 123.822 158.692C124.677 158.123 125.462 157.863 126.18 157.913C126.904 157.957 127.523 158.364 128.035 159.133L130.627 163.025L129.124 164.026ZM126.954 163.823C127.35 163.559 127.594 163.228 127.688 162.829C127.781 162.431 127.704 162.045 127.455 161.672L127.207 161.299L125.925 162.153C125.18 162.649 124.985 163.166 125.342 163.702C125.71 164.253 126.247 164.294 126.954 163.823ZM132.117 155.136C131.635 155.456 131.384 155.87 131.363 156.378C131.345 156.872 131.506 157.376 131.848 157.888C132.189 158.401 132.594 158.748 133.063 158.93C133.539 159.106 134.018 159.034 134.5 158.713C134.966 158.402 135.208 158 135.226 157.506C135.252 157.006 135.089 156.492 134.738 155.964C134.391 155.443 133.982 155.099 133.511 154.93C133.048 154.757 132.583 154.825 132.117 155.136ZM128.28 155.942L129.853 154.894L130.218 155.442L130.521 155.24C130.583 154.525 130.988 153.92 131.733 153.423C132.51 152.906 133.324 152.79 134.176 153.075C135.022 153.352 135.753 153.953 136.369 154.877C136.99 155.809 137.265 156.719 137.195 157.607C137.124 158.495 136.701 159.198 135.924 159.715C135.194 160.202 134.499 160.328 133.839 160.095L133.536 160.297L135.453 163.175L133.821 164.261L128.28 155.942ZM143.41 157.875L141.778 158.962L141.085 155.168L134.967 151.488L136.668 150.355L140.286 152.554L140.589 152.352L139.838 148.244L141.481 147.15L143.41 157.875ZM152.283 148.601L150.652 149.687L149.061 147.298L146.568 148.959L148.158 151.348L146.527 152.434L142.538 146.445L144.169 145.359L145.66 147.596L148.153 145.935L146.663 143.698L148.294 142.611L152.283 148.601ZM152.675 139.475C153.623 138.844 154.567 138.63 155.51 138.832C156.452 139.034 157.238 139.609 157.87 140.557C158.501 141.505 158.728 142.452 158.552 143.4C158.375 144.347 157.813 145.136 156.866 145.767C155.926 146.393 154.981 146.608 154.031 146.411C153.083 146.201 152.297 145.626 151.671 144.686C151.045 143.746 150.82 142.802 150.996 141.855C151.175 140.894 151.735 140.101 152.675 139.475ZM155.965 144.416C156.455 144.09 156.709 143.68 156.727 143.185C156.748 142.678 156.585 142.164 156.238 141.643C155.897 141.131 155.491 140.79 155.02 140.622C154.551 140.44 154.072 140.513 153.583 140.839C153.101 141.159 152.85 141.573 152.829 142.081C152.803 142.58 152.961 143.086 153.302 143.599C153.649 144.12 154.06 144.468 154.536 144.644C155.007 144.813 155.484 144.736 155.965 144.416ZM165.4 139.865L162.597 138.283L161.292 139.152L162.883 141.541L161.252 142.627L157.263 136.638L158.894 135.552L160.384 137.789L161.712 136.904L161.364 133.906L163.03 132.797L163.487 136.664L167.113 138.724L165.4 139.865Z" fill="black"/>
</svg>
