<svg width="106" height="137" viewBox="0 0 106 137" fill="none" xmlns="http://www.w3.org/2000/svg">
<path fill-rule="evenodd" clip-rule="evenodd" d="M58.4337 6.60828C52.0599 5.67432 45.3404 6.29377 39.6323 8.22773C27.5515 12.3208 20.0247 20.2934 15.0627 32.0554C9.40366 45.4696 6.34501 66.5053 6.12282 81.3233C5.93994 93.5196 5.99862 104.429 6.05966 115.779C6.09111 121.627 6.12319 127.592 6.12319 133.91C6.12319 135.616 4.78006 137 3.12323 137C1.4664 137 0.123266 135.616 0.123266 133.91C0.123266 127.665 0.0914304 121.734 0.0601166 115.9C-0.001032 104.507 -0.0601891 93.4852 0.123604 81.2279C0.352678 65.9508 3.47185 44.0233 9.55986 29.5921C15.1077 16.4415 23.8347 7.07389 37.7576 2.3567C44.3672 0.11734 52.0187 -0.574389 59.2787 0.489433C66.5278 1.55167 73.6088 4.40085 78.859 9.47981C88.9583 19.2495 96.0515 31.6989 100.066 45.1177C100.086 45.1856 100.104 45.2541 100.12 45.3233C106.168 71.9367 106.093 89.7017 105.967 119.403C105.947 123.936 105.927 128.747 105.927 133.91C105.927 135.616 104.584 137 102.927 137C101.27 137 99.9271 135.616 99.9271 133.91C99.9271 128.707 99.9469 123.876 99.9654 119.341C100.087 89.6732 100.157 72.6464 94.3014 46.8365C90.5567 34.375 83.991 22.9229 74.7517 13.985C70.6337 10.0014 64.8183 7.54384 58.4337 6.60828Z" fill="#00FA9A"/>
</svg>
